<svg xmlns="http://www.w3.org/2000/svg" viewBox="0 0 231.19 55.1"><g id="Layer_2" data-name="Layer 2"><g id="Layer_1-2" data-name="Layer 1"><g id="Group_47" data-name="Group 47"><g id="Fluffy" style="isolation:isolate"><g style="isolation:isolate"><path d="M73.35,6.6a1.14,1.14,0,0,1,.29-.82,1,1,0,0,1,.69-.33H98.25a1.13,1.13,0,0,1,.87.32,1.29,1.29,0,0,1,.28.88v6.18a1.31,1.31,0,0,1-.3.81,1,1,0,0,1-.87.39H83v7.75H94.25a1.19,1.19,0,0,1,.8.26,1,1,0,0,1,.33.84v6a1.36,1.36,0,0,1-.29.81.92.92,0,0,1-.79.39H83V41.5c0,.72-.39,1.08-1.15,1.08H74.25a1,1,0,0,1-.9-1Z" fill="#0e318a"/><path d="M104.55,3.3A2.29,2.29,0,0,1,105,2a1.59,1.59,0,0,1,1.38-.55h6.12a1.23,1.23,0,0,1,.53.14,2,2,0,0,1,.51.38,2.22,2.22,0,0,1,.4.61,1.77,1.77,0,0,1,.16.77V40.65a1.89,1.89,0,0,1-.53,1.44,2,2,0,0,1-1.39.49h-5.8a1.72,1.72,0,0,1-1.38-.49,2.29,2.29,0,0,1-.4-1.44Z" fill="#0e318a"/><path d="M149.53,42.15a1.51,1.51,0,0,1-.69.35,3.4,3.4,0,0,1-.69.08h-3.77a1.87,1.87,0,0,1-.78-.16,1.81,1.81,0,0,1-.55-.44,2.55,2.55,0,0,1-.37-.62,4.84,4.84,0,0,1-.25-.73l-.78-3.19a11.66,11.66,0,0,1-1.09,1.76A8.72,8.72,0,0,1,138.75,41a10,10,0,0,1-2.62,1.45,9.76,9.76,0,0,1-3.5.59,11.78,11.78,0,0,1-9.14-4.1A13.87,13.87,0,0,1,121,34.54a16.1,16.1,0,0,1-.9-5.42V12.75a2.17,2.17,0,0,1,.42-1.44,1.63,1.63,0,0,1,1.31-.48h5.77a2.27,2.27,0,0,1,1.48.36,1.91,1.91,0,0,1,.4,1.41V28.89a4.5,4.5,0,0,0,.48,2A6.05,6.05,0,0,0,133,33.8a5.32,5.32,0,0,0,2.06.43,4.65,4.65,0,0,0,1.86-.43,6.9,6.9,0,0,0,1.78-1.14A5.92,5.92,0,0,0,140.05,31a4.19,4.19,0,0,0,.53-2V12.68a2.29,2.29,0,0,1,.16-.85,1.39,1.39,0,0,1,.49-.66,2.28,2.28,0,0,1,.61-.27,2.62,2.62,0,0,1,.66-.07h5.65a2,2,0,0,1,1.55.52,2,2,0,0,1,.48,1.4v28a1.83,1.83,0,0,1-.21.87,1.63,1.63,0,0,1-.59.63Z" fill="#0e318a"/><path d="M159.2,11.28a10,10,0,0,1,1-4.38,12,12,0,0,1,2.68-3.59A12.75,12.75,0,0,1,166.73.89,11.94,11.94,0,0,1,171.28,0h.5a1.69,1.69,0,0,1,1.31.51,2,2,0,0,1,.46,1.41V6.7a2.37,2.37,0,0,1-.49,1.54,1.54,1.54,0,0,1-1.28.61h-.5a2.58,2.58,0,0,0-1,.19,2.71,2.71,0,0,0-.85.51,2.59,2.59,0,0,0-.6.76,2.07,2.07,0,0,0-.23,1v2.87h3.93a1.77,1.77,0,0,1,1.31.46,2,2,0,0,1,.46,1.47v4.57a2.28,2.28,0,0,1-.46,1.58,1.72,1.72,0,0,1-1.31.5H168.6V40.65a1.7,1.7,0,0,1-.64,1.44,2.24,2.24,0,0,1-1.38.49h-5.4a1.9,1.9,0,0,1-2-1.93V22.73h-2.57a2,2,0,0,1-1.42-.5,2.11,2.11,0,0,1-.53-1.58V16.08a1.87,1.87,0,0,1,.53-1.47,2.09,2.09,0,0,1,1.42-.46h2.57Z" fill="#0e318a"/><path d="M180.88,11.28a9.83,9.83,0,0,1,1-4.38,11.77,11.77,0,0,1,2.67-3.59A12.87,12.87,0,0,1,188.4.89,12,12,0,0,1,193,0h.5a1.66,1.66,0,0,1,1.31.51,2,2,0,0,1,.47,1.41V6.7a2.43,2.43,0,0,1-.49,1.54,1.57,1.57,0,0,1-1.29.61H193A2.62,2.62,0,0,0,192,9a2.71,2.71,0,0,0-.85.51,2.59,2.59,0,0,0-.6.76,2.07,2.07,0,0,0-.22,1v2.87h3.92a1.74,1.74,0,0,1,1.31.46,2,2,0,0,1,.47,1.47v4.57a2.28,2.28,0,0,1-.47,1.58,1.69,1.69,0,0,1-1.31.5h-3.92V40.65a1.73,1.73,0,0,1-.64,1.44,2.29,2.29,0,0,1-1.39.49h-5.4a1.89,1.89,0,0,1-1.44-.57,1.92,1.92,0,0,1-.53-1.36V22.73H178.3a2,2,0,0,1-1.41-.5,2.07,2.07,0,0,1-.54-1.58V16.08a1.84,1.84,0,0,1,.54-1.47,2.08,2.08,0,0,1,1.41-.46h2.58Z" fill="#0e318a"/><path d="M197.6,13.23a2,2,0,0,1,0-1.72c.26-.47.83-.71,1.71-.71h6.18a1.41,1.41,0,0,1,1,.39,2.38,2.38,0,0,1,.6,1l7.08,20.13,6.92-20.13a2,2,0,0,1,.7-1.07A2.1,2.1,0,0,1,223,10.8h6.42a2.56,2.56,0,0,1,1.1.19,1.11,1.11,0,0,1,.56.5,1.17,1.17,0,0,1,.12.7,3.41,3.41,0,0,1-.2.76q-1,2.36-2.08,5.14l-2.34,5.8L224.1,30c-.83,2.08-1.65,4.11-2.44,6.11l-2.28,5.77q-1.11,2.76-2,5.07c-.61,1.54-1.13,2.9-1.58,4.07s-.8,2.06-1,2.7l.08-.13a2.24,2.24,0,0,1-.63,1.09,1.59,1.59,0,0,1-1.1.41h-5.77a2.1,2.1,0,0,1-1.54-.44,1.78,1.78,0,0,1-.41-1.28,1.11,1.11,0,0,1,.08-.5,1.07,1.07,0,0,1,.14-.23l3.93-10.2Z" fill="#0e318a"/></g></g><path id="Rectangle_50" data-name="Rectangle 50" d="M17.13,9.15,58.64.33h0A19,19,0,0,1,44,22.89L2.48,31.72h0A19,19,0,0,1,17.13,9.15Z" fill="#55a0ed"/><path id="Rectangle_51" data-name="Rectangle 51" d="M18.36,19.42,60.57,15h0A19,19,0,0,1,43.63,35.9L1.42,40.33h0A19,19,0,0,1,18.36,19.42Z" fill="#167be6"/><path id="Rectangle_52" data-name="Rectangle 52" d="M18.69,28.4,46,27.93h0A19,19,0,0,1,27.29,47.28L0,47.76H0A19,19,0,0,1,18.69,28.4Z" fill="#0e318a"/></g></g></g></svg>